<?xml version="1.0" encoding="utf-8"?>
<!-- Generator: Adobe Illustrator 28.2.0, SVG Export Plug-In . SVG Version: 6.00 Build 0)  -->
<svg version="1.1" id="Calque_1" xmlns="http://www.w3.org/2000/svg" xmlns:xlink="http://www.w3.org/1999/xlink" x="0px" y="0px"
	 viewBox="0 0 896 1229" style="enable-background:new 0 0 896 1229;" xml:space="preserve">
<style type="text/css">
	.st0{fill:none;}
	.st1{fill:#7ACFF5;stroke:#000000;}
	.st2{fill:#7ACFF5;fill-opacity:0;}
	.st3{fill:none;stroke:#000000;stroke-miterlimit:10;}
	.st4{font-family:'Helvetica';}
	.st5{font-size:12px;}
	.st6{fill:none;stroke:#000000;stroke-miterlimit:10;stroke-dasharray:8,3;}
	.st7{stroke:#000000;stroke-miterlimit:10;}
	.st8{font-size:11px;}
	.st9{fill:none;stroke:#000000;stroke-miterlimit:10;stroke-dasharray:5;}
	.st10{enable-background:new    ;}
</style>
<path class="st0" d="z"/>
<g>
	<g>
		<ellipse pointer-events="all" class="st1" cx="30.5" cy="69" rx="5" ry="5"/>
		<rect x="26.5" y="117" pointer-events="all" class="st1" width="8" height="1110.7"/>
		<rect x="0.5" y="64" pointer-events="all" class="st2" width="60" height="1567.5"/>
		<ellipse pointer-events="all" class="st1" cx="30.5" cy="69" rx="5" ry="5"/>
		<rect x="26.5" y="117" pointer-events="all" class="st1" width="8" height="1110.7"/>
		<path pointer-events="all" class="st3" d="M30.5,74v15"/>
		<path pointer-events="all" class="st3" d="M30.5,89l-9,11"/>
		<path pointer-events="all" class="st3" d="M30.5,89l9,11"/>
		<path pointer-events="all" class="st3" d="M21.5,80h18"/>
		<rect x="0.5" y="64" pointer-events="all" class="st2" width="60" height="1567.5"/>
	</g>
	<g>
		<g transform="translate(-0.5 -0.5)">
			<text transform="matrix(1 0 0 1 7.4893 113.1)" class="st4 st5">V</text>
			<text transform="matrix(1 0 0 1 15.4932 113.1)" class="st4 st5">i</text>
			<text transform="matrix(1 0 0 1 18.1592 113.1)" class="st4 st5">s</text>
			<text transform="matrix(1 0 0 1 24.1592 113.1)" class="st4 st5">i</text>
			<text transform="matrix(1 0 0 1 26.8252 113.1)" class="st4 st5">t</text>
			<text transform="matrix(1 0 0 1 30.1592 113.1)" class="st4 st5">e</text>
			<text transform="matrix(1 0 0 1 36.833 113.1)" class="st4 st5">u</text>
			<text transform="matrix(1 0 0 1 43.5068 113.1)" class="st4 st5">r</text>
			<text transform="matrix(1 0 0 1 47.5029 113.1)" class="st4 st5">s</text>
		</g>
	</g>
	<g>
		<rect x="204.5" y="64" pointer-events="all" class="st1" width="122" height="35"/>
		<rect x="204.5" y="64" pointer-events="all" class="st2" width="122" height="1567.5"/>
		<rect x="204.5" y="64" pointer-events="all" class="st1" width="122" height="35"/>
		<path pointer-events="all" class="st6" d="M265.5,99v1128.7"/>
		<rect x="204.5" y="64" pointer-events="all" class="st2" width="122" height="1567.5"/>
	</g>
	<g>
		<g transform="translate(-0.5 -0.5)">
			<text transform="matrix(1 0 0 1 233.4775 77.1)" class="st4 st5">S</text>
			<text transform="matrix(1 0 0 1 241.4814 77.1)" class="st4 st5">i</text>
			<text transform="matrix(1 0 0 1 244.1475 77.1)" class="st4 st5">t</text>
			<text transform="matrix(1 0 0 1 247.4814 77.1)" class="st4 st5">e</text>
			<text transform="matrix(1 0 0 1 254.1553 77.1)" class="st4 st5"> </text>
			<text transform="matrix(1 0 0 1 257.4893 77.1)" class="st4 st5">i</text>
			<text transform="matrix(1 0 0 1 260.1553 77.1)" class="st4 st5">n</text>
			<text transform="matrix(1 0 0 1 266.8291 77.1)" class="st4 st5">t</text>
			<text transform="matrix(1 0 0 1 270.1631 77.1)" class="st4 st5">e</text>
			<text transform="matrix(1 0 0 1 276.8369 77.1)" class="st4 st5">r</text>
			<text transform="matrix(1 0 0 1 280.833 77.1)" class="st4 st5">n</text>
			<text transform="matrix(1 0 0 1 287.5068 77.1)" class="st4 st5">e</text>
			<text transform="matrix(1 0 0 1 294.1807 77.1)" class="st4 st5">t</text>
		</g>
	</g>
	<g>
		<rect x="261.5" y="144.9" pointer-events="all" class="st1" width="8" height="1061.8"/>
		<rect x="255.5" y="140.9" pointer-events="all" class="st2" width="20" height="1069.8"/>
		<rect x="261.5" y="144.9" pointer-events="all" class="st1" width="8" height="1061.8"/>
		<rect x="255.5" y="140.9" pointer-events="all" class="st2" width="20" height="1069.8"/>
	</g>
	<g>
		<rect x="469.5" y="64" pointer-events="all" class="st1" width="122" height="35"/>
		<rect x="469.5" y="64" pointer-events="all" class="st2" width="122" height="1567.5"/>
		<rect x="469.5" y="64" pointer-events="all" class="st1" width="122" height="35"/>
		<path pointer-events="all" class="st6" d="M530.5,99v1128.7"/>
		<rect x="469.5" y="64" pointer-events="all" class="st2" width="122" height="1567.5"/>
	</g>
	<g>
		<g transform="translate(-0.5 -0.5)">
			<text transform="matrix(1 0 0 1 483.791 77.1)" class="st4 st5">B</text>
			<text transform="matrix(1 0 0 1 491.7949 77.1)" class="st4 st5">a</text>
			<text transform="matrix(1 0 0 1 498.4688 77.1)" class="st4 st5">s</text>
			<text transform="matrix(1 0 0 1 504.4688 77.1)" class="st4 st5">e</text>
			<text transform="matrix(1 0 0 1 511.1426 77.1)" class="st4 st5"> </text>
			<text transform="matrix(1 0 0 1 514.4766 77.1)" class="st4 st5">d</text>
			<text transform="matrix(1 0 0 1 521.1504 77.1)" class="st4 st5">e</text>
			<text transform="matrix(1 0 0 1 527.8242 77.1)" class="st4 st5"> </text>
			<text transform="matrix(1 0 0 1 531.1582 77.1)" class="st4 st5">d</text>
			<text transform="matrix(1 0 0 1 537.832 77.1)" class="st4 st5">o</text>
			<text transform="matrix(1 0 0 1 544.5059 77.1)" class="st4 st5">n</text>
			<text transform="matrix(1 0 0 1 551.1797 77.1)" class="st4 st5">n</text>
			<text transform="matrix(1 0 0 1 557.8535 77.1)" class="st4 st5">é</text>
			<text transform="matrix(1 0 0 1 564.5273 77.1)" class="st4 st5">e</text>
			<text transform="matrix(1 0 0 1 571.2012 77.1)" class="st4 st5">s</text>
		</g>
	</g>
	<g>
		<rect x="526.5" y="282.9" pointer-events="all" class="st1" width="8" height="78.9"/>
		<rect x="520.5" y="278.9" pointer-events="all" class="st2" width="20" height="86.9"/>
		<rect x="526.5" y="282.9" pointer-events="all" class="st1" width="8" height="78.9"/>
		<rect x="520.5" y="278.9" pointer-events="all" class="st2" width="20" height="86.9"/>
	</g>
	<g>
		<rect x="527.5" y="506.8" pointer-events="all" class="st1" width="8" height="50.3"/>
		<rect x="521.5" y="502.8" pointer-events="all" class="st2" width="20" height="58.3"/>
		<rect x="527.5" y="506.8" pointer-events="all" class="st1" width="8" height="50.3"/>
		<rect x="521.5" y="502.8" pointer-events="all" class="st2" width="20" height="58.3"/>
	</g>
	<g>
		<rect x="526.5" y="694.1" pointer-events="all" class="st1" width="8" height="56.2"/>
		<rect x="520.5" y="690.1" pointer-events="all" class="st2" width="20" height="64.2"/>
		<rect x="526.5" y="694.1" pointer-events="all" class="st1" width="8" height="56.2"/>
		<rect x="520.5" y="690.1" pointer-events="all" class="st2" width="20" height="64.2"/>
	</g>
	<g>
		<rect x="526.5" y="1090.6" pointer-events="all" class="st1" width="8" height="86.5"/>
		<rect x="520.5" y="1086.6" pointer-events="all" class="st2" width="20" height="94.5"/>
		<rect x="526.5" y="1090.6" pointer-events="all" class="st1" width="8" height="86.5"/>
		<rect x="520.5" y="1086.6" pointer-events="all" class="st2" width="20" height="94.5"/>
	</g>
	<g>
		<ellipse pointer-events="all" class="st1" cx="815" cy="69" rx="5" ry="5"/>
		<rect x="811" y="117" pointer-events="all" class="st1" width="8" height="1110.7"/>
		<rect x="734.5" y="64" pointer-events="all" class="st2" width="161" height="1567.5"/>
		<ellipse pointer-events="all" class="st1" cx="815" cy="69" rx="5" ry="5"/>
		<rect x="811" y="117" pointer-events="all" class="st1" width="8" height="1110.7"/>
		<path pointer-events="all" class="st3" d="M815,74v15"/>
		<path pointer-events="all" class="st3" d="M815,89l-9,11"/>
		<path pointer-events="all" class="st3" d="M815,89l9,11"/>
		<path pointer-events="all" class="st3" d="M806,80h18"/>
		<rect x="734.5" y="64" pointer-events="all" class="st2" width="161" height="1567.5"/>
	</g>
	<g>
		<g transform="translate(-0.5 -0.5)">
			<text transform="matrix(1 0 0 1 791.6562 113.1)" class="st4 st5">E</text>
			<text transform="matrix(1 0 0 1 799.6602 113.1)" class="st4 st5">m</text>
			<text transform="matrix(1 0 0 1 809.6562 113.1)" class="st4 st5">p</text>
			<text transform="matrix(1 0 0 1 816.3301 113.1)" class="st4 st5">l</text>
			<text transform="matrix(1 0 0 1 818.9961 113.1)" class="st4 st5">o</text>
			<text transform="matrix(1 0 0 1 825.6699 113.1)" class="st4 st5">y</text>
			<text transform="matrix(1 0 0 1 831.6699 113.1)" class="st4 st5">é</text>
		</g>
	</g>
	<g>
		<path pointer-events="stroke" class="st3" d="M810.8,146.2H280.6"/>
		<path pointer-events="all" class="st7" d="M268.6,146.2l12-6v12L268.6,146.2z"/>
	</g>
	<g>
		<g transform="translate(-0.5 -0.5)">
			<text transform="matrix(1 0 0 1 713.9932 140.8063)" class="st4 st8">N</text>
			<text transform="matrix(1 0 0 1 721.937 140.8063)" class="st4 st8">a</text>
			<text transform="matrix(1 0 0 1 728.0547 140.8063)" class="st4 st8">v</text>
			<text transform="matrix(1 0 0 1 733.5547 140.8063)" class="st4 st8">i</text>
			<text transform="matrix(1 0 0 1 735.9985 140.8063)" class="st4 st8">g</text>
			<text transform="matrix(1 0 0 1 742.1162 140.8063)" class="st4 st8">u</text>
			<text transform="matrix(1 0 0 1 748.2339 140.8063)" class="st4 st8">e</text>
			<text transform="matrix(1 0 0 1 754.3516 140.8063)" class="st4 st8">r</text>
		</g>
	</g>
	<g>
		<path pointer-events="stroke" class="st9" d="M267.5,194.5h541.1"/>
		<path pointer-events="all" class="st3" d="M797.7,200.5l12-6l-12-6"/>
	</g>
	<g>
		<g transform="translate(-0.5 -0.5)">
			<text transform="matrix(1 0 0 1 685.5627 190.8063)" class="st4 st8">A</text>
			<text transform="matrix(1 0 0 1 692.8997 190.8063)" class="st4 st8">f</text>
			<text transform="matrix(1 0 0 1 695.9558 190.8063)" class="st4 st8">f</text>
			<text transform="matrix(1 0 0 1 699.012 190.8063)" class="st4 st8">i</text>
			<text transform="matrix(1 0 0 1 701.4558 190.8063)" class="st4 st8">c</text>
			<text transform="matrix(1 0 0 1 706.9558 190.8063)" class="st4 st8">h</text>
			<text transform="matrix(1 0 0 1 713.0735 190.8063)" class="st4 st8">e</text>
			<text transform="matrix(1 0 0 1 719.1912 190.8063)" class="st4 st8">r</text>
			<text transform="matrix(1 0 0 1 722.8542 190.8063)" class="st4 st8"> </text>
			<text transform="matrix(1 0 0 1 725.9104 190.8063)" class="st4 st8">I</text>
			<text transform="matrix(1 0 0 1 728.9666 190.8063)" class="st4 st8">n</text>
			<text transform="matrix(1 0 0 1 735.0842 190.8063)" class="st4 st8">f</text>
			<text transform="matrix(1 0 0 1 738.1404 190.8063)" class="st4 st8">o</text>
			<text transform="matrix(1 0 0 1 744.2581 190.8063)" class="st4 st8">r</text>
			<text transform="matrix(1 0 0 1 747.9211 190.8063)" class="st4 st8">m</text>
			<text transform="matrix(1 0 0 1 757.0842 190.8063)" class="st4 st8">a</text>
			<text transform="matrix(1 0 0 1 763.2019 190.8063)" class="st4 st8">t</text>
			<text transform="matrix(1 0 0 1 766.2581 190.8063)" class="st4 st8">i</text>
			<text transform="matrix(1 0 0 1 768.7019 190.8063)" class="st4 st8">o</text>
			<text transform="matrix(1 0 0 1 774.8196 190.8063)" class="st4 st8">n</text>
			<text transform="matrix(1 0 0 1 780.9373 190.8063)" class="st4 st8">s</text>
		</g>
	</g>
	<g>
		<path pointer-events="stroke" class="st3" d="M810.8,237.8H280.6"/>
		<path pointer-events="all" class="st7" d="M268.6,237.8l12-6v12L268.6,237.8z"/>
	</g>
	<g>
		<g transform="translate(-0.5 -0.5)">
			<text transform="matrix(1 0 0 1 703.5947 229.8063)" class="st4 st8">S</text>
			<text transform="matrix(1 0 0 1 710.9316 229.8063)" class="st4 st8">e</text>
			<text transform="matrix(1 0 0 1 717.0493 229.8063)" class="st4 st8"> </text>
			<text transform="matrix(1 0 0 1 720.1055 229.8063)" class="st4 st8">c</text>
			<text transform="matrix(1 0 0 1 725.6055 229.8063)" class="st4 st8">o</text>
			<text transform="matrix(1 0 0 1 731.7231 229.8063)" class="st4 st8">n</text>
			<text transform="matrix(1 0 0 1 737.8408 229.8063)" class="st4 st8">n</text>
			<text transform="matrix(1 0 0 1 743.9585 229.8063)" class="st4 st8">e</text>
			<text transform="matrix(1 0 0 1 750.0762 229.8063)" class="st4 st8">c</text>
			<text transform="matrix(1 0 0 1 755.5762 229.8063)" class="st4 st8">t</text>
			<text transform="matrix(1 0 0 1 758.6323 229.8063)" class="st4 st8">e</text>
			<text transform="matrix(1 0 0 1 764.75 229.8063)" class="st4 st8">r</text>
		</g>
	</g>
	<g>
		<path pointer-events="stroke" class="st3" d="M267.5,286.2h245.2"/>
		<path pointer-events="all" class="st7" d="M524.7,286.2l-12,6v-12L524.7,286.2z"/>
	</g>
	<g>
		<g transform="translate(-0.5 -0.5)">
			<text transform="matrix(1 0 0 1 280.5801 277.8063)" class="st4 st8">R</text>
			<text transform="matrix(1 0 0 1 288.5239 277.8063)" class="st4 st8">e</text>
			<text transform="matrix(1 0 0 1 294.6416 277.8063)" class="st4 st8">c</text>
			<text transform="matrix(1 0 0 1 300.1416 277.8063)" class="st4 st8">h</text>
			<text transform="matrix(1 0 0 1 306.2593 277.8063)" class="st4 st8">e</text>
			<text transform="matrix(1 0 0 1 312.377 277.8063)" class="st4 st8">r</text>
			<text transform="matrix(1 0 0 1 316.04 277.8063)" class="st4 st8">c</text>
			<text transform="matrix(1 0 0 1 321.54 277.8063)" class="st4 st8">h</text>
			<text transform="matrix(1 0 0 1 327.6577 277.8063)" class="st4 st8">e</text>
			<text transform="matrix(1 0 0 1 333.7754 277.8063)" class="st4 st8"> </text>
			<text transform="matrix(1 0 0 1 336.8315 277.8063)" class="st4 st8">i</text>
			<text transform="matrix(1 0 0 1 339.2754 277.8063)" class="st4 st8">d</text>
			<text transform="matrix(1 0 0 1 345.3931 277.8063)" class="st4 st8">e</text>
			<text transform="matrix(1 0 0 1 351.5107 277.8063)" class="st4 st8">n</text>
			<text transform="matrix(1 0 0 1 357.6284 277.8063)" class="st4 st8">t</text>
			<text transform="matrix(1 0 0 1 360.6846 277.8063)" class="st4 st8">i</text>
			<text transform="matrix(1 0 0 1 363.1284 277.8063)" class="st4 st8">f</text>
			<text transform="matrix(1 0 0 1 366.1846 277.8063)" class="st4 st8">i</text>
			<text transform="matrix(1 0 0 1 368.6284 277.8063)" class="st4 st8">a</text>
			<text transform="matrix(1 0 0 1 374.7461 277.8063)" class="st4 st8">n</text>
			<text transform="matrix(1 0 0 1 380.8638 277.8063)" class="st4 st8">t</text>
			<text transform="matrix(1 0 0 1 383.9199 277.8063)" class="st4 st8">s</text>
		</g>
	</g>
	<g>
		<path pointer-events="stroke" class="st9" d="M529.2,366.2H269.7"/>
		<path pointer-events="all" class="st3" d="M280.6,360.2l-12,6l12,6"/>
	</g>
	<g>
		<g transform="translate(-0.5 -0.5)">
			<text transform="matrix(1 0 0 1 290.3997 358.8063)" class="st4 st8">I</text>
			<text transform="matrix(1 0 0 1 293.4558 358.8063)" class="st4 st8">d</text>
			<text transform="matrix(1 0 0 1 299.5735 358.8063)" class="st4 st8">e</text>
			<text transform="matrix(1 0 0 1 305.6912 358.8063)" class="st4 st8">n</text>
			<text transform="matrix(1 0 0 1 311.8088 358.8063)" class="st4 st8">t</text>
			<text transform="matrix(1 0 0 1 314.865 358.8063)" class="st4 st8">i</text>
			<text transform="matrix(1 0 0 1 317.3088 358.8063)" class="st4 st8">f</text>
			<text transform="matrix(1 0 0 1 320.365 358.8063)" class="st4 st8">i</text>
			<text transform="matrix(1 0 0 1 322.8088 358.8063)" class="st4 st8">a</text>
			<text transform="matrix(1 0 0 1 328.9265 358.8063)" class="st4 st8">n</text>
			<text transform="matrix(1 0 0 1 335.0442 358.8063)" class="st4 st8">t</text>
			<text transform="matrix(1 0 0 1 338.1003 358.8063)" class="st4 st8">s</text>
		</g>
	</g>
	<g>
		<path pointer-events="stroke" class="st9" d="M267.5,414.5h541.1"/>
		<path pointer-events="all" class="st3" d="M797.7,420.5l12-6l-12-6"/>
	</g>
	<g>
		<g transform="translate(-0.5 -0.5)">
			<text transform="matrix(1 0 0 1 710.0974 405.8063)" class="st4 st8">D</text>
			<text transform="matrix(1 0 0 1 718.0413 405.8063)" class="st4 st8">a</text>
			<text transform="matrix(1 0 0 1 724.1589 405.8063)" class="st4 st8">s</text>
			<text transform="matrix(1 0 0 1 729.6589 405.8063)" class="st4 st8">h</text>
			<text transform="matrix(1 0 0 1 735.7766 405.8063)" class="st4 st8">b</text>
			<text transform="matrix(1 0 0 1 741.8943 405.8063)" class="st4 st8">o</text>
			<text transform="matrix(1 0 0 1 748.012 405.8063)" class="st4 st8">a</text>
			<text transform="matrix(1 0 0 1 754.1296 405.8063)" class="st4 st8">r</text>
			<text transform="matrix(1 0 0 1 757.7927 405.8063)" class="st4 st8">d</text>
		</g>
	</g>
	<g>
		<path pointer-events="stroke" class="st3" d="M810.8,462.8H280.6"/>
		<path pointer-events="all" class="st7" d="M268.6,462.8l12-6v12L268.6,462.8z"/>
	</g>
	<g>
		<g transform="translate(-0.5 -0.5)">
			<text transform="matrix(1 0 0 1 705.675 451.8063)" class="st4 st8">T</text>
			<text transform="matrix(1 0 0 1 712.3943 451.8063)" class="st4 st8">é</text>
			<text transform="matrix(1 0 0 1 718.512 451.8063)" class="st4 st8">m</text>
			<text transform="matrix(1 0 0 1 727.675 451.8063)" class="st4 st8">o</text>
			<text transform="matrix(1 0 0 1 733.7927 451.8063)" class="st4 st8">i</text>
			<text transform="matrix(1 0 0 1 736.2366 451.8063)" class="st4 st8">g</text>
			<text transform="matrix(1 0 0 1 742.3542 451.8063)" class="st4 st8">n</text>
			<text transform="matrix(1 0 0 1 748.4719 451.8063)" class="st4 st8">a</text>
			<text transform="matrix(1 0 0 1 754.5896 451.8063)" class="st4 st8">g</text>
			<text transform="matrix(1 0 0 1 760.7073 451.8063)" class="st4 st8">e</text>
			<text transform="matrix(1 0 0 1 766.825 451.8063)" class="st4 st8">s</text>
		</g>
	</g>
	<g>
		<path pointer-events="stroke" class="st3" d="M267.5,512.8h245.2"/>
		<path pointer-events="all" class="st7" d="M524.7,512.8l-12,6v-12L524.7,512.8z"/>
	</g>
	<g>
		<g transform="translate(-0.5 -0.5)">
			<text transform="matrix(1 0 0 1 279.3848 500.8063)" class="st4 st8">R</text>
			<text transform="matrix(1 0 0 1 287.3286 500.8063)" class="st4 st8">e</text>
			<text transform="matrix(1 0 0 1 293.4463 500.8063)" class="st4 st8">c</text>
			<text transform="matrix(1 0 0 1 298.9463 500.8063)" class="st4 st8">h</text>
			<text transform="matrix(1 0 0 1 305.064 500.8063)" class="st4 st8">e</text>
			<text transform="matrix(1 0 0 1 311.1816 500.8063)" class="st4 st8">r</text>
			<text transform="matrix(1 0 0 1 314.8447 500.8063)" class="st4 st8">c</text>
			<text transform="matrix(1 0 0 1 320.3447 500.8063)" class="st4 st8">h</text>
			<text transform="matrix(1 0 0 1 326.4624 500.8063)" class="st4 st8">e</text>
			<text transform="matrix(1 0 0 1 332.5801 500.8063)" class="st4 st8"> </text>
			<text transform="matrix(1 0 0 1 335.6362 500.8063)" class="st4 st8">t</text>
			<text transform="matrix(1 0 0 1 338.6924 500.8063)" class="st4 st8">é</text>
			<text transform="matrix(1 0 0 1 344.8101 500.8063)" class="st4 st8">m</text>
			<text transform="matrix(1 0 0 1 353.9731 500.8063)" class="st4 st8">o</text>
			<text transform="matrix(1 0 0 1 360.0908 500.8063)" class="st4 st8">i</text>
			<text transform="matrix(1 0 0 1 362.5347 500.8063)" class="st4 st8">g</text>
			<text transform="matrix(1 0 0 1 368.6523 500.8063)" class="st4 st8">n</text>
			<text transform="matrix(1 0 0 1 374.77 500.8063)" class="st4 st8">a</text>
			<text transform="matrix(1 0 0 1 380.8877 500.8063)" class="st4 st8">g</text>
			<text transform="matrix(1 0 0 1 387.0054 500.8063)" class="st4 st8">e</text>
			<text transform="matrix(1 0 0 1 393.123 500.8063)" class="st4 st8">s</text>
		</g>
	</g>
	<g>
		<path pointer-events="stroke" class="st9" d="M529.2,557.8H269.7"/>
		<path pointer-events="all" class="st3" d="M280.6,551.8l-12,6l12,6"/>
	</g>
	<g>
		<g transform="translate(-0.5 -0.5)">
			<text transform="matrix(1 0 0 1 284.3608 548.8063)" class="st4 st8">L</text>
			<text transform="matrix(1 0 0 1 290.4785 548.8063)" class="st4 st8">i</text>
			<text transform="matrix(1 0 0 1 292.9224 548.8063)" class="st4 st8">s</text>
			<text transform="matrix(1 0 0 1 298.4224 548.8063)" class="st4 st8">t</text>
			<text transform="matrix(1 0 0 1 301.4785 548.8063)" class="st4 st8">e</text>
			<text transform="matrix(1 0 0 1 307.5962 548.8063)" class="st4 st8"> </text>
			<text transform="matrix(1 0 0 1 310.6523 548.8063)" class="st4 st8">t</text>
			<text transform="matrix(1 0 0 1 313.7085 548.8063)" class="st4 st8">é</text>
			<text transform="matrix(1 0 0 1 319.8262 548.8063)" class="st4 st8">m</text>
			<text transform="matrix(1 0 0 1 328.9893 548.8063)" class="st4 st8">o</text>
			<text transform="matrix(1 0 0 1 335.1069 548.8063)" class="st4 st8">i</text>
			<text transform="matrix(1 0 0 1 337.5508 548.8063)" class="st4 st8">g</text>
			<text transform="matrix(1 0 0 1 343.6685 548.8063)" class="st4 st8">n</text>
			<text transform="matrix(1 0 0 1 349.7861 548.8063)" class="st4 st8">a</text>
			<text transform="matrix(1 0 0 1 355.9038 548.8063)" class="st4 st8">g</text>
			<text transform="matrix(1 0 0 1 362.0215 548.8063)" class="st4 st8">e</text>
			<text transform="matrix(1 0 0 1 368.1392 548.8063)" class="st4 st8">s</text>
		</g>
	</g>
	<g>
		<path pointer-events="stroke" class="st9" d="M267.5,582.8h541.1"/>
		<path pointer-events="all" class="st3" d="M797.7,588.8l12-6l-12-6"/>
	</g>
	<g>
		<g transform="translate(-0.5 -0.5)">
			<text transform="matrix(1 0 0 1 679.1643 562.8063)" class="st4 st8">A</text>
			<text transform="matrix(1 0 0 1 686.5012 562.8063)" class="st4 st8">f</text>
			<text transform="matrix(1 0 0 1 689.5574 562.8063)" class="st4 st8">f</text>
			<text transform="matrix(1 0 0 1 692.6135 562.8063)" class="st4 st8">i</text>
			<text transform="matrix(1 0 0 1 695.0574 562.8063)" class="st4 st8">c</text>
			<text transform="matrix(1 0 0 1 700.5574 562.8063)" class="st4 st8">h</text>
			<text transform="matrix(1 0 0 1 706.675 562.8063)" class="st4 st8">e</text>
			<text transform="matrix(1 0 0 1 712.7927 562.8063)" class="st4 st8"> </text>
			<text transform="matrix(1 0 0 1 715.8489 562.8063)" class="st4 st8">t</text>
			<text transform="matrix(1 0 0 1 718.905 562.8063)" class="st4 st8">é</text>
			<text transform="matrix(1 0 0 1 725.0227 562.8063)" class="st4 st8">m</text>
			<text transform="matrix(1 0 0 1 734.1858 562.8063)" class="st4 st8">o</text>
			<text transform="matrix(1 0 0 1 740.3035 562.8063)" class="st4 st8">i</text>
			<text transform="matrix(1 0 0 1 742.7473 562.8063)" class="st4 st8">g</text>
			<text transform="matrix(1 0 0 1 748.865 562.8063)" class="st4 st8">n</text>
			<text transform="matrix(1 0 0 1 754.9827 562.8063)" class="st4 st8">a</text>
			<text transform="matrix(1 0 0 1 761.1003 562.8063)" class="st4 st8">g</text>
			<text transform="matrix(1 0 0 1 767.218 562.8063)" class="st4 st8">e</text>
			<text transform="matrix(1 0 0 1 773.3357 562.8063)" class="st4 st8">s</text>
		</g>
	</g>
	<g>
		<path pointer-events="stroke" class="st3" d="M810.8,642.8H280.6"/>
		<path pointer-events="all" class="st7" d="M268.6,642.8l12-6v12L268.6,642.8z"/>
	</g>
	<g>
		<g transform="translate(-0.5 -0.5)">
			<text transform="matrix(1 0 0 1 678.167 627.8063)" class="st4 st8">M</text>
			<text transform="matrix(1 0 0 1 687.3301 627.8063)" class="st4 st8">o</text>
			<text transform="matrix(1 0 0 1 693.4478 627.8063)" class="st4 st8">d</text>
			<text transform="matrix(1 0 0 1 699.5654 627.8063)" class="st4 st8">i</text>
			<text transform="matrix(1 0 0 1 702.0093 627.8063)" class="st4 st8">f</text>
			<text transform="matrix(1 0 0 1 705.0654 627.8063)" class="st4 st8">i</text>
			<text transform="matrix(1 0 0 1 707.5093 627.8063)" class="st4 st8">e</text>
			<text transform="matrix(1 0 0 1 713.627 627.8063)" class="st4 st8">r</text>
			<text transform="matrix(1 0 0 1 717.29 627.8063)" class="st4 st8"> </text>
			<text transform="matrix(1 0 0 1 720.3462 627.8063)" class="st4 st8">t</text>
			<text transform="matrix(1 0 0 1 723.4023 627.8063)" class="st4 st8">é</text>
			<text transform="matrix(1 0 0 1 729.52 627.8063)" class="st4 st8">m</text>
			<text transform="matrix(1 0 0 1 738.6831 627.8063)" class="st4 st8">o</text>
			<text transform="matrix(1 0 0 1 744.8008 627.8063)" class="st4 st8">i</text>
			<text transform="matrix(1 0 0 1 747.2446 627.8063)" class="st4 st8">g</text>
			<text transform="matrix(1 0 0 1 753.3623 627.8063)" class="st4 st8">n</text>
			<text transform="matrix(1 0 0 1 759.48 627.8063)" class="st4 st8">a</text>
			<text transform="matrix(1 0 0 1 765.5977 627.8063)" class="st4 st8">g</text>
			<text transform="matrix(1 0 0 1 771.7153 627.8063)" class="st4 st8">e</text>
		</g>
	</g>
	<g>
		<path pointer-events="stroke" class="st3" d="M267.5,702.8h245.2"/>
		<path pointer-events="all" class="st7" d="M524.7,702.8l-12,6v-12L524.7,702.8z"/>
	</g>
	<g>
		<g transform="translate(-0.5 -0.5)">
			<text transform="matrix(1 0 0 1 281.1348 688.8063)" class="st4 st8">R</text>
			<text transform="matrix(1 0 0 1 289.0786 688.8063)" class="st4 st8">e</text>
			<text transform="matrix(1 0 0 1 295.1963 688.8063)" class="st4 st8">c</text>
			<text transform="matrix(1 0 0 1 300.6963 688.8063)" class="st4 st8">h</text>
			<text transform="matrix(1 0 0 1 306.814 688.8063)" class="st4 st8">e</text>
			<text transform="matrix(1 0 0 1 312.9316 688.8063)" class="st4 st8">r</text>
			<text transform="matrix(1 0 0 1 316.5947 688.8063)" class="st4 st8">c</text>
			<text transform="matrix(1 0 0 1 322.0947 688.8063)" class="st4 st8">h</text>
			<text transform="matrix(1 0 0 1 328.2124 688.8063)" class="st4 st8">e</text>
			<text transform="matrix(1 0 0 1 334.3301 688.8063)" class="st4 st8"> </text>
			<text transform="matrix(1 0 0 1 337.3862 688.8063)" class="st4 st8">t</text>
			<text transform="matrix(1 0 0 1 340.4424 688.8063)" class="st4 st8">é</text>
			<text transform="matrix(1 0 0 1 346.5601 688.8063)" class="st4 st8">m</text>
			<text transform="matrix(1 0 0 1 355.7231 688.8063)" class="st4 st8">o</text>
			<text transform="matrix(1 0 0 1 361.8408 688.8063)" class="st4 st8">i</text>
			<text transform="matrix(1 0 0 1 364.2847 688.8063)" class="st4 st8">g</text>
			<text transform="matrix(1 0 0 1 370.4023 688.8063)" class="st4 st8">n</text>
			<text transform="matrix(1 0 0 1 376.52 688.8063)" class="st4 st8">a</text>
			<text transform="matrix(1 0 0 1 382.6377 688.8063)" class="st4 st8">g</text>
			<text transform="matrix(1 0 0 1 388.7554 688.8063)" class="st4 st8">e</text>
		</g>
	</g>
	<g>
		<path pointer-events="stroke" class="st9" d="M529.2,752.8H269.7"/>
		<path pointer-events="all" class="st3" d="M280.6,746.8l-12,6l12,6"/>
	</g>
	<g>
		<g transform="translate(-0.5 -0.5)">
			<text transform="matrix(1 0 0 1 306.425 741.8063)" class="st4 st8">T</text>
			<text transform="matrix(1 0 0 1 313.1443 741.8063)" class="st4 st8">é</text>
			<text transform="matrix(1 0 0 1 319.262 741.8063)" class="st4 st8">m</text>
			<text transform="matrix(1 0 0 1 328.425 741.8063)" class="st4 st8">o</text>
			<text transform="matrix(1 0 0 1 334.5427 741.8063)" class="st4 st8">i</text>
			<text transform="matrix(1 0 0 1 336.9866 741.8063)" class="st4 st8">g</text>
			<text transform="matrix(1 0 0 1 343.1042 741.8063)" class="st4 st8">n</text>
			<text transform="matrix(1 0 0 1 349.2219 741.8063)" class="st4 st8">a</text>
			<text transform="matrix(1 0 0 1 355.3396 741.8063)" class="st4 st8">g</text>
			<text transform="matrix(1 0 0 1 361.4573 741.8063)" class="st4 st8">e</text>
		</g>
	</g>
	<g>
		<path pointer-events="stroke" class="st9" d="M267.5,782.8h541.1"/>
		<path pointer-events="all" class="st3" d="M797.7,788.8l12-6l-12-6"/>
	</g>
	<g>
		<g transform="translate(-0.5 -0.5)">
			<text transform="matrix(1 0 0 1 588.0625 768.8063)" class="st4 st8">A</text>
			<text transform="matrix(1 0 0 1 595.3994 768.8063)" class="st4 st8">f</text>
			<text transform="matrix(1 0 0 1 598.4556 768.8063)" class="st4 st8">f</text>
			<text transform="matrix(1 0 0 1 601.5117 768.8063)" class="st4 st8">i</text>
			<text transform="matrix(1 0 0 1 603.9556 768.8063)" class="st4 st8">c</text>
			<text transform="matrix(1 0 0 1 609.4556 768.8063)" class="st4 st8">h</text>
			<text transform="matrix(1 0 0 1 615.5732 768.8063)" class="st4 st8">e</text>
			<text transform="matrix(1 0 0 1 621.6909 768.8063)" class="st4 st8"> </text>
			<text transform="matrix(1 0 0 1 624.7471 768.8063)" class="st4 st8">f</text>
			<text transform="matrix(1 0 0 1 627.8032 768.8063)" class="st4 st8">o</text>
			<text transform="matrix(1 0 0 1 633.9209 768.8063)" class="st4 st8">r</text>
			<text transform="matrix(1 0 0 1 637.584 768.8063)" class="st4 st8">m</text>
			<text transform="matrix(1 0 0 1 646.7471 768.8063)" class="st4 st8">u</text>
			<text transform="matrix(1 0 0 1 652.8647 768.8063)" class="st4 st8">l</text>
			<text transform="matrix(1 0 0 1 655.3086 768.8063)" class="st4 st8">a</text>
			<text transform="matrix(1 0 0 1 661.4263 768.8063)" class="st4 st8">i</text>
			<text transform="matrix(1 0 0 1 663.8701 768.8063)" class="st4 st8">r</text>
			<text transform="matrix(1 0 0 1 667.5332 768.8063)" class="st4 st8">e</text>
			<text transform="matrix(1 0 0 1 673.6509 768.8063)" class="st4 st8"> </text>
			<text transform="matrix(1 0 0 1 676.707 768.8063)" class="st4 st8">m</text>
			<text transform="matrix(1 0 0 1 685.8701 768.8063)" class="st4 st8">o</text>
			<text transform="matrix(1 0 0 1 691.9878 768.8063)" class="st4 st8">d</text>
			<text transform="matrix(1 0 0 1 698.1055 768.8063)" class="st4 st8">i</text>
			<text transform="matrix(1 0 0 1 700.5493 768.8063)" class="st4 st8">f</text>
			<text transform="matrix(1 0 0 1 703.6055 768.8063)" class="st4 st8">i</text>
			<text transform="matrix(1 0 0 1 706.0493 768.8063)" class="st4 st8">c</text>
			<text transform="matrix(1 0 0 1 711.5493 768.8063)" class="st4 st8">a</text>
			<text transform="matrix(1 0 0 1 717.667 768.8063)" class="st4 st8">t</text>
			<text transform="matrix(1 0 0 1 720.7231 768.8063)" class="st4 st8">i</text>
			<text transform="matrix(1 0 0 1 723.167 768.8063)" class="st4 st8">o</text>
			<text transform="matrix(1 0 0 1 729.2847 768.8063)" class="st4 st8">n</text>
			<text transform="matrix(1 0 0 1 735.4023 768.8063)" class="st4 st8"> </text>
			<text transform="matrix(1 0 0 1 738.4585 768.8063)" class="st4 st8">t</text>
			<text transform="matrix(1 0 0 1 741.5146 768.8063)" class="st4 st8">é</text>
			<text transform="matrix(1 0 0 1 747.6323 768.8063)" class="st4 st8">m</text>
			<text transform="matrix(1 0 0 1 756.7954 768.8063)" class="st4 st8">o</text>
			<text transform="matrix(1 0 0 1 762.9131 768.8063)" class="st4 st8">i</text>
			<text transform="matrix(1 0 0 1 765.3569 768.8063)" class="st4 st8">g</text>
			<text transform="matrix(1 0 0 1 771.4746 768.8063)" class="st4 st8">n</text>
			<text transform="matrix(1 0 0 1 777.5923 768.8063)" class="st4 st8">a</text>
			<text transform="matrix(1 0 0 1 783.71 768.8063)" class="st4 st8">g</text>
			<text transform="matrix(1 0 0 1 789.8276 768.8063)" class="st4 st8">e</text>
		</g>
	</g>
	<g>
		<path pointer-events="stroke" class="st3" d="M810.8,839.5H280.6"/>
		<path pointer-events="all" class="st7" d="M268.6,839.5l12-6v12L268.6,839.5z"/>
	</g>
	<g>
		<g transform="translate(-0.5 -0.5)">
			<text transform="matrix(1 0 0 1 668.0706 826.8063)" class="st4 st8">S</text>
			<text transform="matrix(1 0 0 1 675.4075 826.8063)" class="st4 st8">a</text>
			<text transform="matrix(1 0 0 1 681.5251 826.8063)" class="st4 st8">u</text>
			<text transform="matrix(1 0 0 1 687.6428 826.8063)" class="st4 st8">v</text>
			<text transform="matrix(1 0 0 1 693.1428 826.8063)" class="st4 st8">e</text>
			<text transform="matrix(1 0 0 1 699.2605 826.8063)" class="st4 st8">g</text>
			<text transform="matrix(1 0 0 1 705.3782 826.8063)" class="st4 st8">a</text>
			<text transform="matrix(1 0 0 1 711.4958 826.8063)" class="st4 st8">r</text>
			<text transform="matrix(1 0 0 1 715.1589 826.8063)" class="st4 st8">d</text>
			<text transform="matrix(1 0 0 1 721.2766 826.8063)" class="st4 st8">e</text>
			<text transform="matrix(1 0 0 1 727.3943 826.8063)" class="st4 st8"> </text>
			<text transform="matrix(1 0 0 1 730.4504 826.8063)" class="st4 st8">t</text>
			<text transform="matrix(1 0 0 1 733.5066 826.8063)" class="st4 st8">é</text>
			<text transform="matrix(1 0 0 1 739.6243 826.8063)" class="st4 st8">m</text>
			<text transform="matrix(1 0 0 1 748.7874 826.8063)" class="st4 st8">o</text>
			<text transform="matrix(1 0 0 1 754.905 826.8063)" class="st4 st8">i</text>
			<text transform="matrix(1 0 0 1 757.3489 826.8063)" class="st4 st8">g</text>
			<text transform="matrix(1 0 0 1 763.4666 826.8063)" class="st4 st8">n</text>
			<text transform="matrix(1 0 0 1 769.5842 826.8063)" class="st4 st8">a</text>
			<text transform="matrix(1 0 0 1 775.7019 826.8063)" class="st4 st8">g</text>
			<text transform="matrix(1 0 0 1 781.8196 826.8063)" class="st4 st8">e</text>
		</g>
	</g>
	<g>
		<path pointer-events="stroke" class="st3" d="M267.5,904.5H516"/>
		<path pointer-events="all" class="st7" d="M528,904.5l-12,6v-12L528,904.5z"/>
	</g>
	<g>
		<path pointer-events="stroke" class="st9" d="M529.2,952.8H269.7"/>
		<path pointer-events="all" class="st3" d="M280.6,946.8l-12,6l12,6"/>
	</g>
	<g>
		<g transform="translate(-0.5 -0.5)">
			<text transform="matrix(1 0 0 1 278.167 889.8063)" class="st4 st8">M</text>
			<text transform="matrix(1 0 0 1 287.3301 889.8063)" class="st4 st8">o</text>
			<text transform="matrix(1 0 0 1 293.4478 889.8063)" class="st4 st8">d</text>
			<text transform="matrix(1 0 0 1 299.5654 889.8063)" class="st4 st8">i</text>
			<text transform="matrix(1 0 0 1 302.0093 889.8063)" class="st4 st8">f</text>
			<text transform="matrix(1 0 0 1 305.0654 889.8063)" class="st4 st8">i</text>
			<text transform="matrix(1 0 0 1 307.5093 889.8063)" class="st4 st8">e</text>
			<text transform="matrix(1 0 0 1 313.627 889.8063)" class="st4 st8">r</text>
			<text transform="matrix(1 0 0 1 317.29 889.8063)" class="st4 st8"> </text>
			<text transform="matrix(1 0 0 1 320.3462 889.8063)" class="st4 st8">t</text>
			<text transform="matrix(1 0 0 1 323.4023 889.8063)" class="st4 st8">é</text>
			<text transform="matrix(1 0 0 1 329.52 889.8063)" class="st4 st8">m</text>
			<text transform="matrix(1 0 0 1 338.6831 889.8063)" class="st4 st8">o</text>
			<text transform="matrix(1 0 0 1 344.8008 889.8063)" class="st4 st8">i</text>
			<text transform="matrix(1 0 0 1 347.2446 889.8063)" class="st4 st8">g</text>
			<text transform="matrix(1 0 0 1 353.3623 889.8063)" class="st4 st8">n</text>
			<text transform="matrix(1 0 0 1 359.48 889.8063)" class="st4 st8">a</text>
			<text transform="matrix(1 0 0 1 365.5977 889.8063)" class="st4 st8">g</text>
			<text transform="matrix(1 0 0 1 371.7153 889.8063)" class="st4 st8">e</text>
		</g>
	</g>
	<g>
		<g transform="translate(-0.5 -0.5)">
			<text transform="matrix(1 0 0 1 283.3608 938.8063)" class="st4 st8">L</text>
			<text transform="matrix(1 0 0 1 289.4785 938.8063)" class="st4 st8">i</text>
			<text transform="matrix(1 0 0 1 291.9224 938.8063)" class="st4 st8">s</text>
			<text transform="matrix(1 0 0 1 297.4224 938.8063)" class="st4 st8">t</text>
			<text transform="matrix(1 0 0 1 300.4785 938.8063)" class="st4 st8">e</text>
			<text transform="matrix(1 0 0 1 306.5962 938.8063)" class="st4 st8"> </text>
			<text transform="matrix(1 0 0 1 309.6523 938.8063)" class="st4 st8">t</text>
			<text transform="matrix(1 0 0 1 312.7085 938.8063)" class="st4 st8">é</text>
			<text transform="matrix(1 0 0 1 318.8262 938.8063)" class="st4 st8">m</text>
			<text transform="matrix(1 0 0 1 327.9893 938.8063)" class="st4 st8">o</text>
			<text transform="matrix(1 0 0 1 334.1069 938.8063)" class="st4 st8">i</text>
			<text transform="matrix(1 0 0 1 336.5508 938.8063)" class="st4 st8">g</text>
			<text transform="matrix(1 0 0 1 342.6685 938.8063)" class="st4 st8">n</text>
			<text transform="matrix(1 0 0 1 348.7861 938.8063)" class="st4 st8">a</text>
			<text transform="matrix(1 0 0 1 354.9038 938.8063)" class="st4 st8">g</text>
			<text transform="matrix(1 0 0 1 361.0215 938.8063)" class="st4 st8">e</text>
			<text transform="matrix(1 0 0 1 367.1392 938.8063)" class="st4 st8">s</text>
		</g>
	</g>
	<g>
		<path pointer-events="stroke" class="st9" d="M267.5,992.8h541.1"/>
		<path pointer-events="all" class="st3" d="M797.7,998.8l12-6l-12-6"/>
	</g>
	<g>
		<g transform="translate(-0.5 -0.5)">
			<text transform="matrix(1 0 0 1 680.1643 970.8063)" class="st4 st8">A</text>
			<text transform="matrix(1 0 0 1 687.5012 970.8063)" class="st4 st8">f</text>
			<text transform="matrix(1 0 0 1 690.5574 970.8063)" class="st4 st8">f</text>
			<text transform="matrix(1 0 0 1 693.6135 970.8063)" class="st4 st8">i</text>
			<text transform="matrix(1 0 0 1 696.0574 970.8063)" class="st4 st8">c</text>
			<text transform="matrix(1 0 0 1 701.5574 970.8063)" class="st4 st8">h</text>
			<text transform="matrix(1 0 0 1 707.675 970.8063)" class="st4 st8">e</text>
			<text transform="matrix(1 0 0 1 713.7927 970.8063)" class="st4 st8"> </text>
			<text transform="matrix(1 0 0 1 716.8489 970.8063)" class="st4 st8">t</text>
			<text transform="matrix(1 0 0 1 719.905 970.8063)" class="st4 st8">é</text>
			<text transform="matrix(1 0 0 1 726.0227 970.8063)" class="st4 st8">m</text>
			<text transform="matrix(1 0 0 1 735.1858 970.8063)" class="st4 st8">o</text>
			<text transform="matrix(1 0 0 1 741.3035 970.8063)" class="st4 st8">i</text>
			<text transform="matrix(1 0 0 1 743.7473 970.8063)" class="st4 st8">g</text>
			<text transform="matrix(1 0 0 1 749.865 970.8063)" class="st4 st8">n</text>
			<text transform="matrix(1 0 0 1 755.9827 970.8063)" class="st4 st8">a</text>
			<text transform="matrix(1 0 0 1 762.1003 970.8063)" class="st4 st8">g</text>
			<text transform="matrix(1 0 0 1 768.218 970.8063)" class="st4 st8">e</text>
			<text transform="matrix(1 0 0 1 774.3357 970.8063)" class="st4 st8">s</text>
		</g>
	</g>
	<g>
		<path pointer-events="stroke" class="st3" d="M810.8,1079.5H280.6"/>
		<path pointer-events="all" class="st7" d="M268.6,1079.5l12-6v12L268.6,1079.5z"/>
	</g>
	<g>
		<g transform="translate(-0.5 -0.5)">
			<text transform="matrix(1 0 0 1 700.8943 1057.8063)" class="st4 st8">D</text>
			<text transform="matrix(1 0 0 1 708.8381 1057.8063)" class="st4 st8">é</text>
			<text transform="matrix(1 0 0 1 714.9558 1057.8063)" class="st4 st8">c</text>
			<text transform="matrix(1 0 0 1 720.4558 1057.8063)" class="st4 st8">o</text>
			<text transform="matrix(1 0 0 1 726.5735 1057.8063)" class="st4 st8">n</text>
			<text transform="matrix(1 0 0 1 732.6912 1057.8063)" class="st4 st8">n</text>
			<text transform="matrix(1 0 0 1 738.8088 1057.8063)" class="st4 st8">e</text>
			<text transform="matrix(1 0 0 1 744.9265 1057.8063)" class="st4 st8">x</text>
			<text transform="matrix(1 0 0 1 750.4265 1057.8063)" class="st4 st8">i</text>
			<text transform="matrix(1 0 0 1 752.8704 1057.8063)" class="st4 st8">o</text>
			<text transform="matrix(1 0 0 1 758.988 1057.8063)" class="st4 st8">n</text>
		</g>
	</g>
	<g>
		<path pointer-events="stroke" class="st9" d="M267.5,1202.8h541.1"/>
		<path pointer-events="all" class="st3" d="M797.7,1208.8l12-6l-12-6"/>
	</g>
	<g>
		<g transform="translate(-0.5 -0.5)">
			<text transform="matrix(1 0 0 1 694.4016 1178.8063)" class="st4 st8">P</text>
			<text transform="matrix(1 0 0 1 701.7385 1178.8063)" class="st4 st8">a</text>
			<text transform="matrix(1 0 0 1 707.8562 1178.8063)" class="st4 st8">g</text>
			<text transform="matrix(1 0 0 1 713.9739 1178.8063)" class="st4 st8">e</text>
			<text transform="matrix(1 0 0 1 720.0916 1178.8063)" class="st4 st8"> </text>
			<text transform="matrix(1 0 0 1 723.1477 1178.8063)" class="st4 st8">d</text>
			<text transform="matrix(1 0 0 1 729.2654 1178.8063)" class="st4 st8">&apos;</text>
			<text transform="matrix(1 0 0 1 731.3655 1178.8063)" class="st4 st8">a</text>
			<text transform="matrix(1 0 0 1 737.4832 1178.8063)" class="st4 st8">c</text>
			<text transform="matrix(1 0 0 1 742.9832 1178.8063)" class="st4 st8">c</text>
			<text transform="matrix(1 0 0 1 748.4832 1178.8063)" class="st4 st8">e</text>
			<text transform="matrix(1 0 0 1 754.6008 1178.8063)" class="st4 st8">u</text>
			<text transform="matrix(1 0 0 1 760.7185 1178.8063)" class="st4 st8">i</text>
			<text transform="matrix(1 0 0 1 763.1624 1178.8063)" class="st4 st8">l</text>
		</g>
	</g>
	<g>
		<path pointer-events="stroke" class="st3" d="M267.5,1116.2h245.2"/>
		<path pointer-events="all" class="st7" d="M524.7,1116.2l-12,6v-12L524.7,1116.2z"/>
	</g>
	<g>
		<g transform="translate(-0.5 -0.5)">
			<text transform="matrix(1 0 0 1 289.7031 1095.8063)" class="st4 st8">R</text>
			<text transform="matrix(1 0 0 1 297.647 1095.8063)" class="st4 st8">e</text>
			<text transform="matrix(1 0 0 1 303.7646 1095.8063)" class="st4 st8">c</text>
			<text transform="matrix(1 0 0 1 309.2646 1095.8063)" class="st4 st8">h</text>
			<text transform="matrix(1 0 0 1 315.3823 1095.8063)" class="st4 st8">e</text>
			<text transform="matrix(1 0 0 1 321.5 1095.8063)" class="st4 st8">r</text>
			<text transform="matrix(1 0 0 1 325.1631 1095.8063)" class="st4 st8">c</text>
			<text transform="matrix(1 0 0 1 330.6631 1095.8063)" class="st4 st8">h</text>
			<text transform="matrix(1 0 0 1 336.7808 1095.8063)" class="st4 st8">e</text>
			<text transform="matrix(1 0 0 1 342.8984 1095.8063)" class="st4 st8"> </text>
			<text transform="matrix(1 0 0 1 345.9546 1095.8063)" class="st4 st8">s</text>
			<text transform="matrix(1 0 0 1 351.4546 1095.8063)" class="st4 st8">e</text>
			<text transform="matrix(1 0 0 1 357.5723 1095.8063)" class="st4 st8">r</text>
			<text transform="matrix(1 0 0 1 361.2354 1095.8063)" class="st4 st8">v</text>
			<text transform="matrix(1 0 0 1 366.7354 1095.8063)" class="st4 st8">i</text>
			<text transform="matrix(1 0 0 1 369.1792 1095.8063)" class="st4 st8">c</text>
			<text transform="matrix(1 0 0 1 374.6792 1095.8063)" class="st4 st8">e</text>
			<text transform="matrix(1 0 0 1 380.7969 1095.8063)" class="st4 st8">s</text>
		</g>
	</g>
	<g>
		<path pointer-events="stroke" class="st9" d="M525.8,1174.5H269.7"/>
		<path pointer-events="all" class="st3" d="M280.6,1168.5l-12,6l12,6"/>
	</g>
	<g>
		<g transform="translate(-0.5 -0.5)">
			<text transform="matrix(1 0 0 1 303.6831 1148.8063)" class="st4 st8">L</text>
			<text transform="matrix(1 0 0 1 309.8008 1148.8063)" class="st4 st8">i</text>
			<text transform="matrix(1 0 0 1 312.2446 1148.8063)" class="st4 st8">s</text>
			<text transform="matrix(1 0 0 1 317.7446 1148.8063)" class="st4 st8">t</text>
			<text transform="matrix(1 0 0 1 320.8008 1148.8063)" class="st4 st8">e</text>
			<text transform="matrix(1 0 0 1 326.9185 1148.8063)" class="st4 st8"> </text>
			<text transform="matrix(1 0 0 1 329.9746 1148.8063)" class="st4 st8">s</text>
			<text transform="matrix(1 0 0 1 335.4746 1148.8063)" class="st4 st8">e</text>
			<text transform="matrix(1 0 0 1 341.5923 1148.8063)" class="st4 st8">r</text>
			<text transform="matrix(1 0 0 1 345.2554 1148.8063)" class="st4 st8">v</text>
			<text transform="matrix(1 0 0 1 350.7554 1148.8063)" class="st4 st8">i</text>
			<text transform="matrix(1 0 0 1 353.1992 1148.8063)" class="st4 st8">c</text>
			<text transform="matrix(1 0 0 1 358.6992 1148.8063)" class="st4 st8">e</text>
			<text transform="matrix(1 0 0 1 364.8169 1148.8063)" class="st4 st8">s</text>
		</g>
	</g>
	<g>
		<rect x="296.8" y="0.5" pointer-events="all" class="st0" width="469.5" height="32"/>
	</g>
	<g>
		<g transform="translate(-0.5 -0.5)">
			<g>
				<g class="st10">
					<path d="M377.1,28.1c0,2.4-0.4,4.4-1.3,6c-0.9,1.6-2.2,2.8-3.8,3.6s-3.7,1.2-6.1,1.2H360V17.6h6.5c2.2,0,4.1,0.4,5.6,1.2
						c1.6,0.8,2.8,2,3.6,3.5S377.1,25.8,377.1,28.1z M374.4,28.2c0-1.9-0.3-3.5-1-4.8s-1.6-2.2-2.8-2.8c-1.2-0.6-2.7-0.9-4.5-0.9
						h-3.6v17.2h3c2.9,0,5.2-0.7,6.6-2.2S374.4,31.1,374.4,28.2z"/>
				</g>
			</g>
			<g>
				<g class="st10">
					<path d="M382.7,16.9c0.4,0,0.7,0.1,1,0.4s0.4,0.7,0.4,1.2c0,0.5-0.1,0.9-0.4,1.2s-0.6,0.4-1,0.4c-0.4,0-0.8-0.1-1-0.4
						s-0.4-0.7-0.4-1.2c0-0.5,0.1-0.9,0.4-1.2S382.3,16.9,382.7,16.9z M383.9,22.9V39h-2.4V22.9H383.9z"/>
				</g>
			</g>
			<g>
				<g class="st10">
					<path d="M395,22.7c1.9,0,3.3,0.4,4.3,1.3s1.4,2.2,1.4,4.1V39h-1.8l-0.5-2.4h-0.1c-0.4,0.6-0.9,1.1-1.4,1.5
						c-0.5,0.4-1.1,0.7-1.7,0.9c-0.6,0.2-1.4,0.3-2.4,0.3c-1,0-1.8-0.2-2.6-0.5s-1.4-0.9-1.8-1.6s-0.7-1.6-0.7-2.6
						c0-1.6,0.6-2.8,1.9-3.7s3.2-1.3,5.8-1.4l2.8-0.1v-1c0-1.4-0.3-2.4-0.9-2.9s-1.4-0.8-2.5-0.8c-0.8,0-1.6,0.1-2.4,0.4
						s-1.5,0.5-2.2,0.9l-0.7-1.8c0.7-0.4,1.6-0.7,2.5-1S394,22.7,395,22.7z M398.3,31.1l-2.4,0.1c-2,0.1-3.4,0.4-4.2,1
						s-1.2,1.4-1.2,2.4c0,0.9,0.3,1.6,0.8,2s1.3,0.7,2.2,0.7c1.4,0,2.6-0.4,3.5-1.2s1.4-2,1.4-3.6V31.1z"/>
				</g>
			</g>
			<g>
				<g class="st10">
					<path d="M410.2,46.2c-2.1,0-3.7-0.4-4.9-1.2s-1.7-1.9-1.7-3.3c0-1,0.3-1.9,1-2.6s1.5-1.2,2.7-1.4c-0.4-0.2-0.8-0.5-1.1-0.9
						s-0.4-0.8-0.4-1.3c0-0.6,0.2-1.1,0.5-1.5c0.3-0.4,0.8-0.9,1.5-1.3c-0.8-0.3-1.5-0.9-2-1.7c-0.5-0.8-0.8-1.8-0.8-2.8
						c0-1.2,0.2-2.1,0.7-3c0.5-0.8,1.2-1.4,2.1-1.9s2-0.6,3.3-0.6c0.3,0,0.6,0,0.9,0s0.6,0.1,0.8,0.1c0.3,0,0.5,0.1,0.7,0.2h5.5v1.6
						l-3,0.4c0.3,0.4,0.5,0.8,0.7,1.4s0.3,1.1,0.3,1.8c0,1.6-0.5,2.9-1.6,3.8s-2.6,1.4-4.5,1.4c-0.4,0-0.9,0-1.4-0.1
						c-0.5,0.3-0.8,0.6-1.1,0.9s-0.4,0.7-0.4,1.1c0,0.3,0.1,0.6,0.3,0.7s0.5,0.3,0.8,0.4c0.4,0.1,0.8,0.1,1.3,0.1h2.8
						c1.7,0,3.1,0.4,4,1.1s1.4,1.8,1.4,3.2c0,1.8-0.7,3.1-2.2,4.1S412.9,46.2,410.2,46.2z M410.2,44.3c1.3,0,2.4-0.1,3.3-0.4
						c0.9-0.3,1.5-0.7,2-1.2s0.7-1.1,0.7-1.8c0-0.6-0.1-1.1-0.4-1.5s-0.7-0.5-1.3-0.7s-1.3-0.2-2.1-0.2h-2.8c-0.7,0-1.4,0.1-1.9,0.3
						s-0.9,0.6-1.2,1s-0.4,1-0.4,1.6c0,0.9,0.4,1.5,1.1,2C407.8,44.1,408.9,44.3,410.2,44.3z M410.9,31.5c1.2,0,2-0.3,2.6-0.9
						s0.9-1.4,0.9-2.6c0-1.2-0.3-2.1-0.9-2.7c-0.6-0.6-1.5-0.9-2.6-0.9c-1.1,0-2,0.3-2.6,0.9s-0.9,1.5-0.9,2.7
						c0,1.1,0.3,1.9,0.9,2.5S409.8,31.5,410.9,31.5z"/>
				</g>
			</g>
			<g>
				<g class="st10">
					<path d="M429.3,22.7c0.3,0,0.7,0,1,0.1c0.4,0,0.7,0.1,0.9,0.1l-0.3,2.3c-0.3-0.1-0.6-0.1-0.9-0.2s-0.6-0.1-0.9-0.1
						c-0.6,0-1.3,0.1-1.8,0.4s-1.1,0.6-1.5,1.1c-0.4,0.5-0.8,1.1-1,1.7c-0.2,0.7-0.4,1.4-0.4,2.3V39H422V22.9h2l0.3,3h0.1
						c0.3-0.6,0.7-1.1,1.2-1.6s1-0.9,1.6-1.2S428.5,22.7,429.3,22.7z"/>
				</g>
			</g>
			<g>
				<g class="st10">
					<path d="M440.2,22.7c1.9,0,3.3,0.4,4.3,1.3s1.4,2.2,1.4,4.1V39h-1.8l-0.5-2.4h-0.1c-0.4,0.6-0.9,1.1-1.4,1.5
						c-0.5,0.4-1.1,0.7-1.7,0.9c-0.6,0.2-1.4,0.3-2.4,0.3c-1,0-1.8-0.2-2.6-0.5s-1.4-0.9-1.8-1.6s-0.7-1.6-0.7-2.6
						c0-1.6,0.6-2.8,1.9-3.7s3.2-1.3,5.8-1.4l2.8-0.1v-1c0-1.4-0.3-2.4-0.9-2.9s-1.4-0.8-2.5-0.8c-0.8,0-1.6,0.1-2.4,0.4
						s-1.5,0.5-2.2,0.9l-0.7-1.8c0.7-0.4,1.6-0.7,2.5-1S439.2,22.7,440.2,22.7z M443.5,31.1l-2.4,0.1c-2,0.1-3.4,0.4-4.2,1
						s-1.2,1.4-1.2,2.4c0,0.9,0.3,1.6,0.8,2s1.3,0.7,2.2,0.7c1.4,0,2.6-0.4,3.5-1.2s1.4-2,1.4-3.6V31.1z"/>
				</g>
			</g>
			<g>
				<g class="st10">
					<path d="M468.3,22.7c1.8,0,3.1,0.5,4,1.4c0.9,0.9,1.3,2.4,1.3,4.4V39h-2.4V28.6c0-1.3-0.3-2.3-0.8-2.9s-1.4-1-2.5-1
						c-1.6,0-2.7,0.4-3.4,1.3s-1.1,2.2-1.1,4v9h-2.4V28.6c0-0.9-0.1-1.6-0.4-2.2s-0.6-1-1.1-1.3c-0.5-0.3-1.1-0.4-1.9-0.4
						c-1.1,0-1.9,0.2-2.6,0.7s-1.1,1.1-1.4,2c-0.3,0.9-0.4,1.9-0.4,3.2V39h-2.4V22.9h2l0.4,2.3h0.1c0.3-0.6,0.7-1,1.2-1.4
						s1-0.7,1.6-0.9s1.2-0.3,1.9-0.3c1.2,0,2.2,0.2,3.1,0.7c0.8,0.5,1.4,1.1,1.8,2.1h0.1c0.5-0.9,1.2-1.6,2.2-2.1
						C466.2,22.9,467.2,22.7,468.3,22.7z"/>
				</g>
			</g>
			<g>
				<g class="st10">
					<path d="M496.1,22.7c1.8,0,3.1,0.5,4,1.4c0.9,0.9,1.3,2.4,1.3,4.4V39h-2.4V28.6c0-1.3-0.3-2.3-0.8-2.9s-1.4-1-2.5-1
						c-1.6,0-2.7,0.4-3.4,1.3s-1.1,2.2-1.1,4v9h-2.4V28.6c0-0.9-0.1-1.6-0.4-2.2s-0.6-1-1.1-1.3c-0.5-0.3-1.1-0.4-1.9-0.4
						c-1.1,0-1.9,0.2-2.6,0.7s-1.1,1.1-1.4,2c-0.3,0.9-0.4,1.9-0.4,3.2V39h-2.4V22.9h2l0.4,2.3h0.1c0.3-0.6,0.7-1,1.2-1.4
						s1-0.7,1.6-0.9s1.2-0.3,1.9-0.3c1.2,0,2.2,0.2,3.1,0.7c0.8,0.5,1.4,1.1,1.8,2.1h0.1c0.5-0.9,1.2-1.6,2.2-2.1
						C494,22.9,495,22.7,496.1,22.7z"/>
				</g>
			</g>
			<g>
				<g class="st10">
					<path d="M512.6,22.7c1.4,0,2.5,0.3,3.5,0.9s1.7,1.5,2.2,2.5c0.5,1.1,0.8,2.4,0.8,3.8v1.5h-11.1c0,1.9,0.5,3.3,1.4,4.3
						s2.2,1.5,3.8,1.5c1,0,1.9-0.1,2.7-0.3s1.6-0.5,2.4-0.8v2.1c-0.8,0.4-1.6,0.6-2.4,0.8s-1.7,0.2-2.8,0.2c-1.5,0-2.9-0.3-4-0.9
						c-1.1-0.6-2-1.6-2.7-2.8s-1-2.7-1-4.5c0-1.7,0.3-3.2,0.9-4.5c0.6-1.3,1.4-2.2,2.5-2.9S511.2,22.7,512.6,22.7z M512.6,24.6
						c-1.3,0-2.3,0.4-3.1,1.3s-1.2,2-1.4,3.6h8.5c0-1-0.2-1.8-0.4-2.5c-0.3-0.7-0.7-1.3-1.3-1.7C514.3,24.8,513.5,24.6,512.6,24.6z"
						/>
				</g>
			</g>
			<g>
				<g class="st10">
				</g>
			</g>
			<g>
				<g class="st10">
					<path d="M536.8,39.3c-2,0-3.6-0.7-4.8-2.1s-1.8-3.4-1.8-6.2c0-2.8,0.6-4.9,1.8-6.3s2.8-2.1,4.8-2.1c0.8,0,1.6,0.1,2.2,0.3
						s1.2,0.5,1.6,0.9s0.8,0.8,1.2,1.3h0.2c0-0.3-0.1-0.7-0.1-1.2s-0.1-1-0.1-1.3v-6.4h2.4V39h-2l-0.4-2.3h-0.1
						c-0.3,0.5-0.7,0.9-1.2,1.3s-1,0.7-1.7,0.9C538.4,39.2,537.7,39.3,536.8,39.3z M537.2,37.3c1.7,0,2.9-0.5,3.6-1.5
						s1.1-2.4,1.1-4.4V31c0-2-0.3-3.6-1-4.7s-1.9-1.6-3.7-1.6c-1.5,0-2.6,0.6-3.4,1.7c-0.7,1.1-1.1,2.7-1.1,4.7c0,2,0.4,3.5,1.1,4.6
						S535.7,37.3,537.2,37.3z"/>
				</g>
			</g>
			<g>
				<g class="st10">
					<path d="M555.6,22.7c1.4,0,2.5,0.3,3.5,0.9s1.7,1.5,2.2,2.5c0.5,1.1,0.8,2.4,0.8,3.8v1.5h-11.1c0,1.9,0.5,3.3,1.4,4.3
						s2.2,1.5,3.8,1.5c1,0,1.9-0.1,2.7-0.3s1.6-0.5,2.4-0.8v2.1c-0.8,0.4-1.6,0.6-2.4,0.8s-1.7,0.2-2.8,0.2c-1.5,0-2.9-0.3-4-0.9
						c-1.1-0.6-2-1.6-2.7-2.8s-1-2.7-1-4.5c0-1.7,0.3-3.2,0.9-4.5c0.6-1.3,1.4-2.2,2.5-2.9S554.2,22.7,555.6,22.7z M555.6,24.6
						c-1.3,0-2.3,0.4-3.1,1.3s-1.2,2-1.4,3.6h8.5c0-1-0.2-1.8-0.4-2.5c-0.3-0.7-0.7-1.3-1.3-1.7C557.3,24.8,556.5,24.6,555.6,24.6z"
						/>
				</g>
			</g>
			<g>
				<g class="st10">
				</g>
			</g>
			<g>
				<g class="st10">
					<path d="M584.5,34.6c0,1-0.3,1.9-0.8,2.6s-1.2,1.2-2.2,1.6s-2.1,0.5-3.4,0.5c-1.1,0-2.1-0.1-2.9-0.3s-1.5-0.4-2.2-0.7V36
						c0.7,0.3,1.4,0.6,2.3,0.9s1.8,0.4,2.8,0.4c1.4,0,2.4-0.2,3-0.7s0.9-1.1,0.9-1.8c0-0.4-0.1-0.8-0.4-1.2c-0.2-0.3-0.7-0.7-1.3-1
						c-0.6-0.3-1.4-0.7-2.4-1c-1-0.4-1.9-0.8-2.7-1.2s-1.3-0.9-1.7-1.4s-0.6-1.3-0.6-2.2c0-1.4,0.5-2.4,1.6-3.1s2.5-1.1,4.3-1.1
						c1,0,1.9,0.1,2.7,0.3c0.8,0.2,1.6,0.4,2.4,0.8l-0.8,1.9c-0.7-0.3-1.4-0.5-2.1-0.7s-1.5-0.3-2.3-0.3c-1.1,0-2,0.2-2.6,0.6
						s-0.9,0.9-0.9,1.5c0,0.5,0.1,0.9,0.4,1.2s0.7,0.6,1.3,0.9s1.4,0.6,2.4,1c1,0.4,1.9,0.8,2.6,1.2c0.7,0.4,1.3,0.9,1.7,1.4
						S584.5,33.7,584.5,34.6z"/>
				</g>
			</g>
			<g>
				<g class="st10">
					<path d="M594.6,22.7c1.4,0,2.5,0.3,3.5,0.9s1.7,1.5,2.2,2.5c0.5,1.1,0.8,2.4,0.8,3.8v1.5H590c0,1.9,0.5,3.3,1.4,4.3
						s2.2,1.5,3.8,1.5c1,0,1.9-0.1,2.7-0.3s1.6-0.5,2.4-0.8v2.1c-0.8,0.4-1.6,0.6-2.4,0.8s-1.7,0.2-2.8,0.2c-1.5,0-2.9-0.3-4-0.9
						c-1.1-0.6-2-1.6-2.7-2.8s-1-2.7-1-4.5c0-1.7,0.3-3.2,0.9-4.5c0.6-1.3,1.4-2.2,2.5-2.9S593.1,22.7,594.6,22.7z M594.5,24.6
						c-1.3,0-2.3,0.4-3.1,1.3s-1.2,2-1.4,3.6h8.5c0-1-0.2-1.8-0.4-2.5c-0.3-0.7-0.7-1.3-1.3-1.7C596.2,24.8,595.5,24.6,594.5,24.6z"
						/>
				</g>
			</g>
			<g>
				<g class="st10">
					<path d="M616,46.2v-6.9c0-0.4,0-0.8,0-1.3s0.1-0.9,0.1-1.3H616c-0.4,0.7-1.1,1.4-1.9,1.9s-1.9,0.7-3.2,0.7
						c-2,0-3.5-0.7-4.7-2.1s-1.8-3.5-1.8-6.2c0-1.8,0.3-3.3,0.8-4.6s1.3-2.2,2.3-2.8c1-0.6,2.2-1,3.5-1c1.3,0,2.3,0.3,3.1,0.8
						c0.8,0.5,1.4,1.1,1.9,1.8h0.1l0.4-2.3h1.9v23.2H616z M611.3,37.3c1.1,0,2-0.2,2.7-0.6c0.7-0.4,1.2-1.1,1.5-1.9s0.5-1.9,0.5-3.2
						V31c0-2.1-0.4-3.6-1.1-4.7c-0.7-1.1-1.9-1.6-3.7-1.6c-1.5,0-2.6,0.6-3.4,1.7c-0.7,1.1-1.1,2.7-1.1,4.7s0.4,3.5,1.1,4.6
						S609.8,37.3,611.3,37.3z"/>
				</g>
			</g>
			<g>
				<g class="st10">
					<path d="M636.8,22.9V39h-2l-0.4-2.3h-0.1c-0.3,0.6-0.8,1-1.3,1.4s-1.1,0.7-1.8,0.9c-0.7,0.2-1.4,0.3-2.1,0.3
						c-1.3,0-2.3-0.2-3.2-0.6s-1.5-1-1.9-1.9s-0.7-2-0.7-3.3V22.9h2.5v10.3c0,1.3,0.3,2.3,0.9,3c0.6,0.7,1.5,1,2.8,1
						c1.2,0,2.1-0.2,2.8-0.7s1.2-1.1,1.5-2s0.5-1.9,0.5-3.2v-8.5H636.8z"/>
				</g>
			</g>
			<g>
				<g class="st10">
					<path d="M648.2,22.7c1.4,0,2.5,0.3,3.5,0.9s1.7,1.5,2.2,2.5c0.5,1.1,0.8,2.4,0.8,3.8v1.5h-11.1c0,1.9,0.5,3.3,1.4,4.3
						s2.2,1.5,3.8,1.5c1,0,1.9-0.1,2.7-0.3s1.6-0.5,2.4-0.8v2.1c-0.8,0.4-1.6,0.6-2.4,0.8s-1.7,0.2-2.8,0.2c-1.5,0-2.9-0.3-4-0.9
						c-1.1-0.6-2-1.6-2.7-2.8s-1-2.7-1-4.5c0-1.7,0.3-3.2,0.9-4.5c0.6-1.3,1.4-2.2,2.5-2.9S646.7,22.7,648.2,22.7z M648.1,24.6
						c-1.3,0-2.3,0.4-3.1,1.3s-1.2,2-1.4,3.6h8.5c0-1-0.2-1.8-0.4-2.5c-0.3-0.7-0.7-1.3-1.3-1.7C649.8,24.8,649.1,24.6,648.1,24.6z"
						/>
				</g>
			</g>
			<g>
				<g class="st10">
					<path d="M666.4,22.7c1.9,0,3.3,0.5,4.3,1.4c1,0.9,1.5,2.4,1.5,4.5V39h-2.4V28.7c0-1.3-0.3-2.3-0.9-3s-1.5-1-2.8-1
						c-1.8,0-3,0.5-3.8,1.5s-1.1,2.5-1.1,4.4V39h-2.4V22.9h2l0.4,2.3h0.1c0.3-0.6,0.8-1,1.3-1.4s1.1-0.7,1.8-0.9
						S665.7,22.7,666.4,22.7z"/>
				</g>
			</g>
			<g>
				<g class="st10">
					<path d="M683.7,39.3c-1.4,0-2.7-0.3-3.8-0.9s-2-1.5-2.6-2.7s-0.9-2.8-0.9-4.6c0-1.9,0.3-3.5,1-4.8s1.5-2.2,2.7-2.7
						s2.4-0.9,3.9-0.9c0.8,0,1.6,0.1,2.3,0.2c0.7,0.2,1.4,0.4,1.8,0.6l-0.7,2c-0.5-0.2-1.1-0.4-1.7-0.5s-1.2-0.2-1.8-0.2
						c-1.1,0-2,0.2-2.8,0.7s-1.3,1.2-1.7,2.1s-0.5,2.1-0.5,3.4c0,1.3,0.2,2.4,0.5,3.3s0.9,1.6,1.6,2.1c0.7,0.5,1.6,0.7,2.7,0.7
						c0.8,0,1.6-0.1,2.3-0.3c0.7-0.2,1.3-0.4,1.9-0.6v2.2c-0.5,0.3-1.1,0.5-1.8,0.6S684.6,39.3,683.7,39.3z"/>
				</g>
			</g>
			<g>
				<g class="st10">
					<path d="M697.8,22.7c1.4,0,2.5,0.3,3.5,0.9s1.7,1.5,2.2,2.5c0.5,1.1,0.8,2.4,0.8,3.8v1.5h-11.1c0,1.9,0.5,3.3,1.4,4.3
						s2.2,1.5,3.8,1.5c1,0,1.9-0.1,2.7-0.3s1.6-0.5,2.4-0.8v2.1c-0.8,0.4-1.6,0.6-2.4,0.8s-1.7,0.2-2.8,0.2c-1.5,0-2.9-0.3-4-0.9
						c-1.1-0.6-2-1.6-2.7-2.8s-1-2.7-1-4.5c0-1.7,0.3-3.2,0.9-4.5c0.6-1.3,1.4-2.2,2.5-2.9S696.3,22.7,697.8,22.7z M697.8,24.6
						c-1.3,0-2.3,0.4-3.1,1.3s-1.2,2-1.4,3.6h8.5c0-1-0.2-1.8-0.4-2.5c-0.3-0.7-0.7-1.3-1.3-1.7C699.4,24.8,698.7,24.6,697.8,24.6z"
						/>
				</g>
			</g>
		</g>
	</g>
	<g>
		<path pointer-events="stroke" class="st3" d="M810.8,146.2H280.6"/>
		<path pointer-events="all" class="st7" d="M268.6,146.2l12-6v12L268.6,146.2z"/>
	</g>
	<g>
		<path pointer-events="stroke" class="st9" d="M267.5,194.5h541.1"/>
		<path pointer-events="all" class="st3" d="M797.7,200.5l12-6l-12-6"/>
	</g>
	<g>
		<path pointer-events="stroke" class="st3" d="M810.8,237.8H280.6"/>
		<path pointer-events="all" class="st7" d="M268.6,237.8l12-6v12L268.6,237.8z"/>
	</g>
	<g>
		<path pointer-events="stroke" class="st3" d="M267.5,286.2h245.2"/>
		<path pointer-events="all" class="st7" d="M524.7,286.2l-12,6v-12L524.7,286.2z"/>
	</g>
	<g>
		<path pointer-events="stroke" class="st9" d="M529.2,366.2H269.7"/>
		<path pointer-events="all" class="st3" d="M280.6,360.2l-12,6l12,6"/>
	</g>
	<g>
		<path pointer-events="stroke" class="st9" d="M267.5,414.5h541.1"/>
		<path pointer-events="all" class="st3" d="M797.7,420.5l12-6l-12-6"/>
	</g>
	<g>
		<path pointer-events="stroke" class="st3" d="M810.8,462.8H280.6"/>
		<path pointer-events="all" class="st7" d="M268.6,462.8l12-6v12L268.6,462.8z"/>
	</g>
	<g>
		<path pointer-events="stroke" class="st3" d="M267.5,512.8h245.2"/>
		<path pointer-events="all" class="st7" d="M524.7,512.8l-12,6v-12L524.7,512.8z"/>
	</g>
	<g>
		<path pointer-events="stroke" class="st9" d="M529.2,557.8H269.7"/>
		<path pointer-events="all" class="st3" d="M280.6,551.8l-12,6l12,6"/>
	</g>
	<g>
		<path pointer-events="stroke" class="st9" d="M267.5,582.8h541.1"/>
		<path pointer-events="all" class="st3" d="M797.7,588.8l12-6l-12-6"/>
	</g>
	<g>
		<path pointer-events="stroke" class="st3" d="M810.8,642.8H280.6"/>
		<path pointer-events="all" class="st7" d="M268.6,642.8l12-6v12L268.6,642.8z"/>
	</g>
	<g>
		<path pointer-events="stroke" class="st3" d="M267.5,702.8h245.2"/>
		<path pointer-events="all" class="st7" d="M524.7,702.8l-12,6v-12L524.7,702.8z"/>
	</g>
	<g>
		<path pointer-events="stroke" class="st9" d="M529.2,752.8H269.7"/>
		<path pointer-events="all" class="st3" d="M280.6,746.8l-12,6l12,6"/>
	</g>
	<g>
		<path pointer-events="stroke" class="st9" d="M267.5,782.8h541.1"/>
		<path pointer-events="all" class="st3" d="M797.7,788.8l12-6l-12-6"/>
	</g>
	<g>
		<path pointer-events="stroke" class="st3" d="M810.8,839.5H280.6"/>
		<path pointer-events="all" class="st7" d="M268.6,839.5l12-6v12L268.6,839.5z"/>
	</g>
	<g>
		<path pointer-events="stroke" class="st3" d="M267.5,904.5H516"/>
		<path pointer-events="all" class="st7" d="M528,904.5l-12,6v-12L528,904.5z"/>
	</g>
	<g>
		<path pointer-events="stroke" class="st9" d="M529.2,952.8H269.7"/>
		<path pointer-events="all" class="st3" d="M280.6,946.8l-12,6l12,6"/>
	</g>
	<g>
		<path pointer-events="stroke" class="st9" d="M267.5,992.8h541.1"/>
		<path pointer-events="all" class="st3" d="M797.7,998.8l12-6l-12-6"/>
	</g>
	<g>
		<path pointer-events="stroke" class="st3" d="M810.8,1079.5H280.6"/>
		<path pointer-events="all" class="st7" d="M268.6,1079.5l12-6v12L268.6,1079.5z"/>
	</g>
	<g>
		<path pointer-events="stroke" class="st9" d="M267.5,1202.8h541.1"/>
		<path pointer-events="all" class="st3" d="M797.7,1208.8l12-6l-12-6"/>
	</g>
	<g>
		<path pointer-events="stroke" class="st3" d="M267.5,1116.2h245.2"/>
		<path pointer-events="all" class="st7" d="M524.7,1116.2l-12,6v-12L524.7,1116.2z"/>
	</g>
	<g>
		<path pointer-events="stroke" class="st9" d="M525.8,1174.5H269.7"/>
		<path pointer-events="all" class="st3" d="M280.6,1168.5l-12,6l12,6"/>
	</g>
</g>
<a transform="translate(0,-5)">
</a>
<path class="st0" d="z"/>
</svg>
